<svg viewBox="0 0 314 314" xmlns="http://www.w3.org/2000/svg"><path d="M280.864 89.278c11.018 20.104 17.288 43.176 17.288 67.718 0 52.076-28.222 97.541-70.187 122.009l43.113-124.654c8.053-20.138 10.734-36.24 10.734-50.558 0-5.196-.342-10.02-.948-14.515zm-104.412 1.537c8.498-.447 16.156-1.341 16.156-1.341 7.605-.9 6.708-12.078-.9-11.633 0 0-22.865 1.794-37.625 1.794-13.869 0-37.175-1.794-37.175-1.794-7.612-.445-8.504 11.183-.895 11.633 0 0 7.2.894 14.806 1.34l21.99 60.257-30.895 92.644-51.4-152.9a286.775 286.775 0 0 0 16.154-1.341c7.6-.9 6.703-12.078-.902-11.633 0 0-22.86 1.794-37.62 1.794-2.649 0-5.77-.065-9.085-.171 25.24-38.318 68.622-63.623 117.938-63.623 36.747 0 70.207 14.05 95.319 37.06-.608-.036-1.201-.112-1.828-.112-13.866 0-23.704 12.078-23.704 25.052 0 11.633 6.712 21.475 13.866 33.106 5.367 9.402 11.638 21.479 11.638 38.93 0 12.08-4.647 26.1-10.741 45.631l-14.084 47.042-51.013-151.735zM157 298.162a141.108 141.108 0 0 1-39.878-5.752l42.357-123.067 43.385 118.87c.286.698.637 1.341 1.01 1.946A140.858 140.858 0 0 1 157 298.162zM15.845 156.996A140.59 140.59 0 0 1 28.067 99.55l67.335 184.484c-47.092-22.878-79.557-71.166-79.557-127.038zM156.999 0C70.43 0 0 70.428 0 156.996c0 86.571 70.43 157.007 157 157.007 86.567 0 157-70.436 157-157.007C314 70.428 243.567 0 157 0z" fill="#105478" fill-rule="evenodd"/></svg>